HIERARCHY
ROOT Hips
{
 OFFSET 0.000000 0.000000 0.000000
 CHANNELS 6 Xposition Yposition Zposition Yrotation Xrotation Zrotation
 JOINT Chest
 {
  OFFSET 0.000000 9.588913 -0.003946
  CHANNELS 3 Yrotation Xrotation Zrotation
  JOINT Chest2
  {
   OFFSET 0.000000 9.541882 0.008053
   CHANNELS 3 Yrotation Xrotation Zrotation
   JOINT Chest3
   {
    OFFSET 0.000000 9.501360 0.000000
    CHANNELS 3 Yrotation Xrotation Zrotation
    JOINT Chest4
    {
     OFFSET 0.000000 9.491660 0.000000
     CHANNELS 3 Yrotation Xrotation Zrotation
     JOINT Neck
     {
      OFFSET 0.000000 14.331917 0.000000
      CHANNELS 3 Yrotation Xrotation Zrotation
      JOINT Head
      {
       OFFSET 0.000000 8.884799 0.017034
       CHANNELS 3 Yrotation Xrotation Zrotation
       End Site
       {
        OFFSET 0.000000 16.896195 0.008993
       }
      }
     }
     JOINT RightCollar
     {
      OFFSET -2.923010 9.499495 0.000000
      CHANNELS 3 Yrotation Xrotation Zrotation
      JOINT RightShoulder
      {
       OFFSET -13.795216 0.000000 0.000000
       CHANNELS 3 Yrotation Xrotation Zrotation
       JOINT RightElbow
       {
        OFFSET -30.272209 0.000000 0.000000
        CHANNELS 3 Yrotation Xrotation Zrotation
        JOINT RightWrist
        {
         OFFSET -24.478199 0.000000 0.000000
         CHANNELS 3 Yrotation Xrotation Zrotation
         End Site
         {
          OFFSET -18.090752 0.000000 0.000000
         }
        }
       }
      }
     }
     JOINT LeftCollar
     {
      OFFSET 2.923010 9.499495 0.000000
      CHANNELS 3 Yrotation Xrotation Zrotation
      JOINT LeftShoulder
      {
       OFFSET 13.795216 0.000000 0.000000
       CHANNELS 3 Yrotation Xrotation Zrotation
       JOINT LeftElbow
       {
        OFFSET 30.272209 0.000000 0.000000
        CHANNELS 3 Yrotation Xrotation Zrotation
        JOINT LeftWrist
        {
         OFFSET 24.478199 0.000000 0.000000
         CHANNELS 3 Yrotation Xrotation Zrotation
         End Site
         {
          OFFSET 18.090752 0.000000 0.000000
         }
        }
       }
      }
     }
    }
   }
  }
 }
 JOINT RightHip
 {
  OFFSET -7.826875 0.019532 0.001973
  CHANNELS 3 Yrotation Xrotation Zrotation
  JOINT RightKnee
  {
   OFFSET 0.000000 -40.546152 -0.001885
   CHANNELS 3 Yrotation Xrotation Zrotation
   JOINT RightAnkle
   {
    OFFSET 0.000000 -39.417092 -0.003189
    CHANNELS 3 Yrotation Xrotation Zrotation
    JOINT RightToe
    {
     OFFSET 0.000000 -7.579396 17.243563
     CHANNELS 3 Yrotation Xrotation Zrotation
     End Site
     {
      OFFSET 0.000000 -1.500329 6.694466
     }
    }
   }
  }
 }
 JOINT LeftHip
 {
  OFFSET 7.826875 0.019532 0.001973
  CHANNELS 3 Yrotation Xrotation Zrotation
  JOINT LeftKnee
  {
   OFFSET 0.000000 -40.546152 -0.001885
   CHANNELS 3 Yrotation Xrotation Zrotation
   JOINT LeftAnkle
   {
    OFFSET 0.000000 -39.417092 -0.003189
    CHANNELS 3 Yrotation Xrotation Zrotation
    JOINT LeftToe
    {
     OFFSET 0.000000 -7.579396 17.243563
     CHANNELS 3 Yrotation Xrotation Zrotation
     End Site
     {
      OFFSET 0.000000 -1.500329 6.694466
     }
    }
   }
  }
 }
}
MOTION
Frames: 12
Frame Time: 0.008333
0.000000 87.345680 0.000000 0.000000 -5.767889 0.000000 0.000000 11.653876 0.000000 0.000000 -5.885988 0.000000 0.000000 -0.000000 0.000000 0.000000 -0.000000 0.000000 0.000000 12.528808 0.000000 0.000000 0.711711 0.000000 0.000000 -0.000000 0.000000 0.000000 -0.000000 0.000000 2.309063 -0.000000 0.000000 -2.309063 -0.000000 -0.000000 0.000000 -0.000000 0.000000 0.000000 0.000000 0.000000 -2.309063 0.000000 0.000000 2.309063 -0.000000 0.000000 0.000000 8.520374 0.000000 0.000000 1.905768 0.000000 -0.000000 -4.658254 0.000000 0.000000 -0.000000 0.000000 0.000000 8.520374 0.000000 0.000000 1.905768 0.000000 -0.000000 -4.658254 0.000000 0.000000 -0.000000 0.000000
17.449427 89.278268 -17.101451 121.492102 -8.666053 2.908440 0.529640 4.428253 1.499409 0.182772 2.453692 0.911943 0.234626 3.066635 1.141415 0.182772 2.453692 0.911944 -21.163663 16.494760 -2.360987 -38.330036 -3.273019 2.537004 -3.107818 1.047287 -4.712613 -9.885792 -10.118725 85.251864 9.396161 -21.384551 0.418970 4.052323 -5.393211 0.920749 -5.246441 2.708291 -1.188293 7.158697 -6.076657 -97.679695 -7.941687 -19.026936 -13.327712 -14.544893 -7.583986 3.859400 -15.244069 6.531978 -9.790415 -2.356402 -1.147062 1.275648 -6.703795 1.021283 1.583082 0.032153 -0.734190 0.156888 5.387940 1.374818 8.684385 6.086873 20.328888 5.873020 0.052712 -11.934253 -16.850400 0.290195 2.169762 0.578162
17.537038 89.293002 -17.101126 121.609078 -8.494187 2.954308 0.388641 4.254151 1.458772 0.179688 2.436815 0.907818 0.230700 3.045549 1.136225 0.179688 2.436815 0.907818 -20.932561 16.587934 -2.393023 -37.878959 -3.160650 2.390191 -3.090649 1.025686 -4.706730 -9.961867 -10.158016 85.241469 9.512055 -21.454910 0.492008 4.125024 -5.419082 0.925400 -5.287553 2.711448 -1.202246 6.973940 -6.103318 -97.699534 -7.968132 -18.320656 -13.315973 -14.063596 -7.519356 3.624137 -15.368008 6.396000 -9.761707 -2.447645 -1.107595 1.234529 -6.621146 0.906596 1.523855 0.031260 -0.697557 0.184712 5.448820 1.489369 8.544749 5.979876 19.267506 5.663444 -0.045151 -11.638763 -16.728857 0.223592 2.090291 0.575176
17.651678 89.309628 -17.104085 121.689263 -8.366399 2.977359 0.289106 4.127935 1.443779 0.172604 2.418119 0.905397 0.221780 3.022199 1.133138 0.172604 2.418119 0.905397 -20.676586 16.688506 -2.422646 -37.382145 -3.038123 2.239047 -3.072197 1.011952 -4.702086 -10.031997 -10.187764 85.226161 9.642588 -21.532871 0.581523 4.190269 -5.448192 0.933827 -5.329079 2.703846 -1.223454 6.774688 -6.152828 -97.678012 -7.960079 -17.577756 -13.289437 -13.456818 -7.398036 3.319612 -15.467932 6.330835 -9.716460 -2.534942 -1.078710 1.198117 -6.533727 0.786120 1.456712 0.028543 -0.665246 0.209394 5.550746 1.631052 8.431574 5.882486 18.198499 5.457510 -0.197306 -11.299447 -16.611346 0.178679 1.988970 0.584377
17.785446 89.326382 -17.110618 121.750502 -8.268840 2.979794 0.214541 4.035143 1.448944 0.160525 2.398369 0.904513 0.206622 2.997541 1.131940 0.160524 2.398369 0.904513 -20.396376 16.795243 -2.448274 -36.841582 -2.906852 2.086967 -3.047172 1.004742 -4.696144 -10.097790 -10.211963 85.203804 9.781592 -21.616264 0.687114 4.250169 -5.475032 0.947622 -5.369077 2.688726 -1.247557 6.553514 -6.227719 -97.618907 -7.927156 -16.835234 -13.251765 -12.722396 -7.202129 2.946959 -15.561799 6.317964 -9.659523 -2.609913 -1.061562 1.168882 -6.449679 0.661214 1.385061 0.024339 -0.635414 0.229043 5.686801 1.789171 8.336736 5.792998 17.120927 5.261963 -0.404935 -10.901627 -16.490183 0.150854 1.856753 0.594349
17.931083 89.341972 -17.121229 121.806965 -8.190632 2.965501 0.152069 3.962109 1.468110 0.144443 2.378910 0.905233 0.186471 2.973257 1.132723 0.144442 2.378911 0.905233 -20.096321 16.906613 -2.470010 -36.265633 -2.768582 1.935431 -3.018442 1.002518 -4.690530 -10.164778 -10.232373 85.179999 9.925971 -21.698434 0.803865 4.305117 -5.501622 0.965244 -5.411357 2.671874 -1.267330 6.298369 -6.331419 -97.531131 -7.884136 -16.127121 -13.206688 -11.865951 -6.921204 2.515696 -15.661561 6.342651 -9.596918 -2.675573 -1.058280 1.149569 -6.368529 0.534822 1.309888 0.019357 -0.606885 0.243850 5.855191 1.954351 8.253264 5.711245 16.040919 5.077991 -0.666417 -10.431098 -16.349895 0.127608 1.682421 0.591453
18.082810 89.355612 -17.135700 121.871593 -8.120631 2.935378 0.090379 3.896044 1.498295 0.125122 2.360693 0.908133 0.162288 2.950533 1.136214 0.125122 2.360693 0.908133 -19.780813 17.020315 -2.488767 -35.662492 -2.626725 1.784648 -2.989756 1.002728 -4.689212 -10.235669 -10.249211 85.158133 10.072912 -21.772764 0.930700 4.352940 -5.530384 0.985249 -5.458003 2.652537 -1.282780 5.995533 -6.454590 -97.421126 -7.849151 -15.485617 -13.151456 -10.902207 -6.564880 2.036746 -15.777643 6.392738 -9.527734 -2.738846 -1.074016 1.138069 -6.287964 0.413162 1.234749 0.014583 -0.579957 0.252964 6.049055 2.116380 8.180748 5.641469 14.967433 4.902986 -0.982647 -9.873855 -16.182697 0.099949 1.453844 0.570408
18.236033 89.367166 -17.155047 121.948759 -8.050824 2.899943 0.023668 3.829731 1.528802 0.103523 2.343067 0.912905 0.135270 2.928553 1.142032 0.103522 2.343068 0.912905 -19.452564 17.135938 -2.505138 -35.037052 -2.481557 1.634424 -2.966783 1.003425 -4.689446 -10.304342 -10.259830 85.134811 10.219500 -21.838417 1.067740 4.395756 -5.557399 1.004781 -5.513980 2.628150 -1.298115 5.644709 -6.579526 -97.298318 -7.836951 -14.935624 -13.071195 -9.848951 -6.147300 1.524976 -15.911969 6.455526 -9.460969 -2.799329 -1.108755 1.129985 -6.206382 0.297273 1.166276 0.010455 -0.552792 0.256169 6.261548 2.271163 8.110990 5.594813 13.907573 4.734891 -1.382329 -9.215376 -15.929754 0.073242 1.160708 0.488795
18.386696 89.377066 -17.182628 122.033240 -7.978133 2.885989 -0.047809 3.761737 1.534237 0.081188 2.324535 0.918784 0.107336 2.905442 1.149232 0.081188 2.324535 0.918784 -19.113947 17.253442 -2.519077 -34.393732 -2.332596 1.485541 -2.951734 1.005500 -4.688542 -10.366768 -10.258878 85.111706 10.367977 -21.897218 1.208250 4.436455 -5.582223 1.022213 -5.579112 2.597353 -1.314101 5.253661 -6.691903 -97.174534 -7.849378 -14.484061 -12.953327 -8.748877 -5.680209 1.008452 -16.060033 6.517567 -9.427736 -2.851808 -1.157748 1.129028 -6.122599 0.180794 1.108905 0.008125 -0.519520 0.253750 6.493253 2.422260 8.020675 5.575856 12.869176 4.561312 -1.901504 -8.446233 -15.448932 0.058476 0.808551 0.254961
18.531834 89.385833 -17.221050 122.121258 -7.900149 2.915851 -0.124915 3.689681 1.492493 0.058994 2.304407 0.925202 0.079578 2.880336 1.157108 0.058993 2.304407 0.925202 -18.766944 17.371160 -2.530118 -33.736583 -2.182320 1.339815 -2.940572 1.011954 -4.686796 -10.426062 -10.246915 85.094117 10.517737 -21.948618 1.344073 4.478038 -5.603348 1.040310 -5.646609 2.564632 -1.328686 4.840871 -6.788396 -97.060141 -7.879185 -14.123777 -12.796954 -7.652016 -5.184692 0.517039 -16.217382 6.569017 -9.450284 -2.895295 -1.220093 1.137976 -6.048736 0.060147 1.063649 0.008292 -0.475088 0.245459 6.736316 2.573271 7.892008 5.555572 11.866331 4.370196 -2.514009 -7.566702 -14.704411 0.049921 0.420114 -0.131677
18.658307 89.392704 -17.270091 122.268639 -7.755898 3.023486 -0.263498 3.547369 1.361147 0.037222 2.283422 0.932234 0.052348 2.854160 1.165756 0.037222 2.283423 0.932234 -18.413839 17.486697 -2.538018 -33.070205 -2.034574 1.198896 -2.931443 1.024099 -4.684579 -10.484009 -10.227561 85.082305 10.662909 -21.992137 1.474513 4.524036 -5.617974 1.058570 -5.711967 2.534207 -1.343248 4.437837 -6.872434 -96.962443 -7.914779 -13.831120 -12.605946 -6.599370 -4.696861 0.069706 -16.433785 6.528810 -9.548698 -2.933234 -1.291928 1.149700 -5.996963 -0.041304 1.034401 0.012945 -0.437125 0.233667 6.916798 2.664674 7.683279 5.480866 10.920924 4.181846 -3.189234 -6.603117 -13.882239 0.062807 0.034302 -0.521613
18.782259 89.399410 -17.330196 122.406464 -7.629284 3.170768 -0.395890 3.419171 1.187709 0.015917 2.263000 0.940363 0.025710 2.828685 1.175782 0.015917 2.263000 0.940363 -18.057473 17.598069 -2.542850 -32.400023 -1.892509 1.063886 -2.925533 1.041164 -4.681156 -10.537069 -10.203222 85.074067 10.799128 -22.031340 1.600147 4.577128 -5.631043 1.074010 -5.773329 2.506663 -1.359194 4.074634 -6.945261 -96.884260 -7.947404 -13.575593 -12.391561 -5.625746 -4.258600 -0.315762 -16.639329 6.501727 -9.693435 -2.973671 -1.368275 1.158294 -5.954604 -0.183717 1.021287 0.019461 -0.358276 0.219543 7.093091 2.771613 7.450334 5.309225 10.065305 4.034145 -3.822252 -5.610860 -13.142495 0.078293 -0.291443 -0.825407
